<svg clip-rule="evenodd" stroke-linecap="round" stroke-linejoin="round" stroke-miterlimit="10" version="1.1" viewBox="0 0 50.947 72" xmlns="http://www.w3.org/2000/svg">
 <path d="m25.386 0c-14.07 0-25.386 12.632-25.386 26.702s25.47 45.298 25.47 45.298 25.477-31.228 25.477-45.298-11.491-26.702-25.562-26.702zm-11.383 15.814c1.234-0.0173 2.6772 1.4929 2.4174 2.7496-0.11092 0.53711-1.9324 1.4424-1.3096 1.6745 1.0334 0.38532 1.9243-0.1249 1.818 1.4141-0.52064 7.5223-5.2498 6.5269-5.5254-0.29337-0.0598-1.4798 0.26376-5.5121 2.5997-5.5448zm22.61 0c1.234-0.0173 2.6772 1.4929 2.4174 2.7496-0.11113 0.53711-1.9324 1.4424-1.3098 1.6745 1.0336 0.38532 1.9245-0.1249 1.818 1.4141-0.52065 7.5223-5.2431 6.5269-5.519-0.29337-0.0598-1.4798 0.2573-5.5121 2.5934-5.5448zm-7.3824 10.601c-4.7116 6.7629-8.5227 6e-3 -8.5227 6e-3zm-4.1572 5.2909c8.4018-0.31568 15.286 15.123 15.286 15.123 0-2e-4 -18.263-6.1628-28.585-0.34549 2.5924-6.622 4.5-11.37 10.647-14.146 0.89574-0.40471 1.7829-0.59946 2.652-0.63219z" fill-rule="evenodd" stroke-width=".20851"/>
</svg>
