<svg clip-rule="evenodd" stroke-linecap="round" stroke-linejoin="round" stroke-miterlimit="10" version="1.1" viewBox="0 0 50.955 72" xmlns="http://www.w3.org/2000/svg">
 <g transform="matrix(.20851 0 0 .20851 -107.97 -39.062)" fill-rule="evenodd">
  <path d="m648.77 320.68-0.846-9.647"/>
  <path d="m639.56 187.34c-67.48 0-121.75 60.581-121.75 128.06 1e-3 67.481 122.19 217.25 122.19 217.25s122.19-149.77 122.19-217.25-55.145-128.06-122.63-128.06zm-52.187 88c5.918-0.083 12.871 7.129 11.625 13.156-0.533 2.576-9.268 6.949-6.281 8.062 4.956 1.848 9.229-0.598 8.719 6.782-2.498 36.077-25.178 31.303-26.5-1.406-0.287-7.097 1.233-26.437 12.437-26.594zm108.47 0c5.918-0.083 12.84 7.129 11.594 13.156-0.533 2.576-9.269 6.949-6.282 8.062 4.957 1.848 9.23-0.598 8.719 6.782-2.497 36.077-25.146 31.303-26.469-1.406-0.287-7.097 1.234-26.437 12.438-26.594zm-35.406 50.844c-22.597 32.434-40.876 0.031-40.876 0.031zm70.937 26.937c-15.915 34.63-34.889 71.826-72.625 86.344-58.652 22.565-110.12-75.781-110.12-75.781s119.38 19.86 182.75-10.563z"/>
 </g>
</svg>
