<svg clip-rule="evenodd" stroke-linecap="round" stroke-linejoin="round" stroke-miterlimit="10" version="1.1" viewBox="0 0 50.954 72" xmlns="http://www.w3.org/2000/svg" >
 <g transform="matrix(.20851 0 0 .20851 -107.97 -39.063)">
  <path d="m639.56 187.34c-67.48 0-121.75 60.613-121.75 128.09 1e-3 67.48 122.19 217.22 122.19 217.22s122.19-149.74 122.19-217.22c0-67.481-55.145-128.09-122.63-128.09zm-54.593 103.56c5.918-0.083 12.871 7.16 11.625 13.188-0.533 2.575-9.3 6.949-6.313 8.062 4.957 1.848 9.23-0.63 8.719 6.75-2.497 36.078-25.146 31.335-26.469-1.375-0.287-7.097 1.234-26.468 12.438-26.625zm108.47 0c5.917-0.083 12.84 7.16 11.593 13.188-0.532 2.575-9.268 6.949-6.281 8.062 4.956 1.848 9.229-0.63 8.719 6.75-2.497 36.078-25.178 31.335-26.5-1.375-0.287-7.097 1.265-26.468 12.469-26.625zm-35.407 50.875c-22.596 32.435-40.875 0.031-40.875 0.031zm-18.812 31.531c22.75 0.125 45.372 15.043 67.343 46.844 1.784 2.582 1.113 6.123-1.468 7.906-2.582 1.784-6.092 1.145-7.875-1.437-20.044-29.01-39.506-41.867-58.063-41.969-14.254-0.078-27.844 7.391-40.25 20.063-4.423 4.518-8.353 9.362-11.75 14.219-1.185 1.694-2.226 3.256-3.094 4.656-0.298 0.482-0.971 1.605-1 1.656-1.532 2.738-4.98 3.72-7.718 2.188-2.739-1.533-3.72-4.981-2.188-7.719 0.23-0.412 0.652-1.128 1.25-2.094 0.976-1.574 2.128-3.314 3.438-5.187 3.733-5.339 8.045-10.691 12.937-15.688 14.356-14.664 30.583-23.535 48.438-23.438z" fill-rule="evenodd"/>
 </g>
</svg>
